<svg width="9" height="10" viewBox="0 0 9 10" fill="none" xmlns="http://www.w3.org/2000/svg">
<path fill-rule="evenodd" clip-rule="evenodd" d="M9 5.27295C9 7.75695 6.9795 9.77295 4.5 9.77295C2.016 9.77295 -8.81222e-08 7.75695 -1.96701e-07 5.27295C-3.05084e-07 2.79345 2.016 0.772949 4.5 0.772949C6.9795 0.772949 9 2.79345 9 5.27295ZM3.60985 3.47287C3.47935 3.60787 3.47935 3.81937 3.61435 3.94987L4.94185 5.27287L3.61435 6.59587C3.47935 6.72637 3.47935 6.94237 3.60985 7.07287C3.74485 7.20787 3.95635 7.20787 4.08685 7.07287L5.65735 5.51137C5.72035 5.44837 5.75635 5.36287 5.75635 5.27287C5.75635 5.18287 5.72035 5.09737 5.65735 5.03437L4.08685 3.47287C4.02385 3.40537 3.93835 3.37387 3.85285 3.37387C3.76285 3.37387 3.67735 3.40537 3.60985 3.47287Z" fill="#666666"/>
</svg>
