<svg width="590" height="590" viewBox="0 0 590 590" fill="none" xmlns="http://www.w3.org/2000/svg">
<path d="M295 590C457.924 590 590 457.924 590 295C590 132.076 457.924 0 295 0C132.076 0 0 132.076 0 295C0 457.924 132.076 590 295 590Z" fill="url(#paint0_linear_6794_77099)"/>
<path d="M200.464 330.444C208.677 310.928 212.857 290.849 216.621 270.698C223.038 236.341 227.376 201.757 225.919 166.699C225.642 160.037 227.518 157.561 234.693 158.238C254.121 160.073 273.385 162.294 290.85 171.861C295.473 174.394 299.531 173.034 303.951 171.788C337.379 162.362 371.277 155.97 406.199 156.688C429.146 157.16 451.401 160.864 472.567 170.365C479.487 173.47 482.051 177.887 481.414 185.233C479.698 205.001 471.796 222.719 463.589 240.337C461.346 245.153 458.084 242.383 455.316 240.635C427.463 223.043 397.553 209.734 366.746 198.37C344.881 190.305 322.768 182.964 298.855 179.3C306.234 186.602 313.351 194.193 321.037 201.155C355.07 231.979 390.537 260.903 431.528 282.246C436.05 284.6 437.148 287.015 434.044 291.421C422.649 307.602 410.992 323.584 393.895 334.297C388.811 337.483 387.594 342.014 386.334 347.047C376.532 386.193 362.291 423.441 338.934 456.72C329.288 470.757 317.353 483.074 303.628 493.159C297.381 497.679 291.817 498.211 285.485 493.452C270.207 481.968 258.72 467.18 248.07 451.595C245.143 447.311 247.22 444.967 250.986 443.03C281.683 427.241 308.958 406.51 335.249 384.402C351.423 371.026 366.716 356.619 381.033 341.272C378.014 338.396 375.426 340.512 373.168 341.114C322.509 354.621 273.715 372.756 228.853 400.342C222.721 404.112 219.461 403.643 216.471 396.747C208.835 379.129 201.756 361.36 200.565 341.978C200.174 335.628 196.292 332.207 192.423 328.446C164.805 301.608 140.785 272.057 124.071 237.099C115.908 220.025 109.944 202.308 109.214 183.073C108.924 175.443 112.017 171.187 118.905 168.705C134.898 162.913 151.627 159.404 168.599 158.278C175.404 157.824 177.076 160.221 176.898 166.361C175.64 209.729 182.269 252.229 191.515 294.399C194.165 306.487 197.463 318.433 200.464 330.444ZM295.693 189.074C284.584 246.625 249.68 289.629 210.334 330.137C264.05 308.205 317.599 318.04 371.644 328.715C330.178 290.55 311.386 240.975 295.693 189.074Z" fill="white"/>
<defs>
<linearGradient id="paint0_linear_6794_77099" x1="112.409" y1="-72.9472" x2="618.033" y2="432.676" gradientUnits="userSpaceOnUse">
<stop offset="0.0885417" stop-color="#E5C9D3"/>
<stop offset="0.369792" stop-color="#B385DF"/>
<stop offset="0.875" stop-color="#6F2AEF"/>
</linearGradient>
</defs>
</svg>
